PathFileType	4	(X/Y/Z)	2_2_27_p1_0-240_filt_butterworth.trc
DataRate	CameraRate	NumFrames	NumMarkers	Units	OrigDataRate	OrigDataStartFrame	OrigNumFrames
60.0	60.0	4	27	m	60.0	0	240
Frame#	Time	RHip			RKnee			RAnkle			RBigToe			RSmallToe			RHeel			LHip			LKnee			LAnkle			LBigToe			LSmallToe			LHeel			Neck			Head			Nose			RShoulder			RElbow			RWrist			RThumb			RIndex			RPinky			LShoulder			LElbow			LWrist			LThumb			LIndex			LPinky			
		X1	Y1	Z1	X2	Y2	Z2	X3	Y3	Z3	X4	Y4	Z4	X5	Y5	Z5	X6	Y6	Z6	X7	Y7	Z7	X8	Y8	Z8	X9	Y9	Z9	X10	Y10	Z10	X11	Y11	Z11	X12	Y12	Z12	X13	Y13	Z13	X14	Y14	Z14	X15	Y15	Z15	X16	Y16	Z16	X17	Y17	Z17	X18	Y18	Z18	X19	Y19	Z19	X20	Y20	Z20	X21	Y21	Z21	X22	Y22	Z22	X23	Y23	Z23	X24	Y24	Z24	X25	Y25	Z25	X26	Y26	Z26	X27	Y27	Z27	
0	0.0	0.3178018644503665	0.7453124994930874	0.7554192814061147	0.3081495567553123	0.27274115536552535	0.8005230543852699	0.288976340311152	-0.16260784662811237	0.8841737536326529	0.3021278518872971	-0.16545697424661612	0.650767565006872	0.36268234938717375	-0.18740773583429207	0.710082268999388	0.2816902281080597	-0.21019018527755698	0.8980924829553247	0.09371524390182842	0.755137654228838	0.7334988640847497	0.08504996886271726	0.29265699624014185	0.7812676088639684	0.0625164718212738	-0.13833919418838975	0.8495185763232845	0.09892329117807418	-0.16728777457266408	0.6811399871892664	0.02250628516743321	-0.16489901833118592	0.7057428031688517	0.06775328762160845	-0.23908147487544856	0.9317402084920348	0.2200776790052845	1.4748667573231173	0.7118466612874469	0.2314326248428278	1.7374530553670604	0.6482677806233818	0.23198163765705287	1.5996466211562614	0.5945626681265791	0.3978216247739988	1.3832159089978329	0.7562115406435859	0.4778931002751849	1.0791201445374736	0.723214013208848	0.3620610126658908	0.902362167560895	0.6127885690362078	0.2533317148030944	0.9420659951285467	0.5415389663487107	0.21805560121354628	0.8618624152683114	0.5440844090176369	0.21537054382243662	0.835451681096142	0.5639894276938172	0.063150618433491	1.3839057420284067	0.7327066048472786	-0.03792913788509825	1.0856103229551812	0.7383988867181814	0.0984040966062867	0.9212081408869297	0.5816144063399258	0.1743498849962553	0.9202578008082063	0.6091463642277065	0.21210356983154866	0.8700861856389621	0.5556921932201362	0.21002612597665854	0.8404314863591608	0.5739917424064518	
1	0.0166666666666666	0.317383133569462	0.7459004817276083	0.7551863289904864	0.30810302945685447	0.27297094460204485	0.8005691852773247	0.288918148686003	-0.16181777568908406	0.8847656579053811	0.3026864233749451	-0.16312484659264154	0.6510808300184865	0.36416814910987105	-0.19122473513852256	0.7167220324320357	0.2821529231566828	-0.21097476677199467	0.9009801567101149	0.09498825804982569	0.7562330798518977	0.7317690698921921	0.08547386493939593	0.2918428319302324	0.7804063133253893	0.06302550522743915	-0.14041982657742524	0.8511314249359867	0.09904879460160676	-0.16543842925567878	0.6848784039488922	0.022577298278054145	-0.16489473387786976	0.7058061159021985	0.06824497153462379	-0.24077932409431954	0.9346994547399894	0.22007938626620352	1.4748182272897081	0.7119386838377413	0.23234999665324327	1.7381405555919511	0.6453820034472192	0.23186207368724832	1.5986449216815155	0.594345917850764	0.3978255125668607	1.383199248565299	0.7562726475322226	0.47696165860975676	1.0789801552276057	0.7197708969144673	0.36219225469234667	0.9022807003426243	0.6130577769072019	0.2504601817188153	0.9325295018512437	0.5473892210965332	0.2181356570752468	0.8607881506282233	0.5438149479879986	0.2182877223553481	0.8365364181629075	0.5609138830597895	0.0639358385153329	1.3841036735762402	0.7310853442498495	-0.03588297640650726	1.087020767546787	0.7393003430539757	0.09906092581901986	0.9215303712843533	0.5803124942213596	0.17427174306823262	0.9186770725402984	0.6093880521257868	0.21141837771679076	0.8694265701887308	0.5572818703919098	0.21247383472435938	0.8422623430269442	0.5675476311100759	
2	0.0333333333333333	0.3171304742071281	0.7462544018741054	0.7550519581034165	0.30806552809318904	0.27315720181335534	0.8005887881876521	0.28887346184163454	-0.16119229001822372	0.8852389546872096	0.30303535134521	-0.16163561873342847	0.6512614463502596	0.36512487940404226	-0.19368750293806894	0.720971946027407	0.28251647721407913	-0.21159874131721015	0.9033292759509588	0.09611252081624364	0.7571242871035491	0.7301221232639825	0.0857546992808952	0.29107816565928013	0.7798308511126835	0.06345820514204979	-0.142285439887443	0.8526957431667929	0.09909219452350637	-0.16440306652175374	0.6865335403552036	0.022606134835231433	-0.1649020251592674	0.7059023564616813	0.06867319684825905	-0.24219589511223608	0.9371744736290516	0.22007355712596485	1.474789830468305	0.7119887758293069	0.2326598633959472	1.7386731444936623	0.6442329003402202	0.2318197104859889	1.5978548081277548	0.5944389652215537	0.39782705690067743	1.3831780700356722	0.7563224625689066	0.476161391923676	1.0793195550406744	0.7166818859088389	0.362252288186043	0.9022321062571178	0.6132208634300209	0.24889261659257808	0.9264841367439174	0.551325487156352	0.2181522508622717	0.8605189262662153	0.5437711164772949	0.22023607123214523	0.8370546208564645	0.5595688300872481	0.064227234304655	1.384180672476047	0.7305023120190333	-0.034567234878765625	1.087994582570269	0.739885577771361	0.09923173023220519	0.9215985464828165	0.5799937671681781	0.17455473856483322	0.9177302059697673	0.6088503270192124	0.21125392819359778	0.8692473434285543	0.557706541979027	0.21410968194955288	0.8434094022874785	0.5637177524931323	
3	0.05	0.317027239199614	0.7464057723689987	0.7550047841586625	0.30803609339692456	0.2733046833166576	0.8005857687308833	0.28884118203055964	-0.16071758151590404	0.885603796337878	0.3032154544696275	-0.16082829357778214	0.6513374297387055	0.3656510116739576	-0.1950516727620093	0.7232860909306986	0.28279031429428303	-0.21207778198738125	0.9051860847970793	0.09709262031578932	0.7578325174055649	0.7285675064183186	0.08591039282245268	0.2903673677819384	0.7795046676111241	0.06382104545646394	-0.14394802373329524	0.8542050097046752	0.09907379720482845	-0.16402777847431074	0.6865852350435739	0.02260256518515171	-0.16491868963753417	0.7060200418163061	0.06904438757721848	-0.24335387091945748	0.939204215579674	0.220062882858932	1.474778403046221	0.712006165326736	0.23251004600755007	1.739076036532072	0.6444021383170986	0.23182923850201037	1.5972348614999285	0.5947114761603916	0.397827047498632	1.383154380054784	0.7563615498403999	0.4755086944415979	1.080002515633245	0.7140908049716106	0.3622426906197574	0.9022304413765596	0.6132167158462349	0.2483512936673956	0.9232761341021648	0.5536735330076312	0.21811754400874372	0.8608859458003842	0.5439060220933319	0.22138917343987244	0.8371365714271036	0.5595469415691201	0.06414444719552585	1.3841658319741121	0.7307052619883969	-0.03384483102436904	1.0885958069891148	0.7402129334924179	0.09905636097624286	0.9214879156062281	0.5803722312918715	0.17511882455058145	0.9173075707410173	0.6077013225832213	0.21151898504003108	0.8694460937187914	0.5571689262274916	0.21507146427948662	0.8440061874481932	0.5619667623962143	
